<svg xmlns="http://www.w3.org/2000/svg" viewBox="0 0 400 300">
  <path d="M364.6,140.0 C366.0,168.1 358.7,209.8 332.1,227.0 C305.5,244.3 246.8,243.9 205.0,243.5 C163.2,243.1 107.5,241.8 81.5,224.6 C55.4,207.3 49.6,168.7 48.8,140.0 C48.0,111.3 50.7,70.8 76.7,52.2 C102.7,33.6 163.8,27.4 205.0,28.5 C246.2,29.5 297.2,40.1 323.8,58.7 C350.4,77.3 363.2,111.9 364.6,140.0Z" fill="#1b1f2c"/>
  <rect x="40" y="262" width="320" height="3" rx="1.5" fill="#2c3248"/>
  <rect x="150" y="36" width="214" height="170" rx="10" fill="#2a3144"/><rect x="160" y="48" width="30" height="5" rx="2.5" fill="#8a91a5"/><rect x="160" y="60" width="58" height="136" rx="6" fill="#262c3d"/><rect x="228" y="48" width="30" height="5" rx="2.5" fill="#8a91a5"/><rect x="228" y="60" width="58" height="136" rx="6" fill="#262c3d"/><rect x="296" y="48" width="30" height="5" rx="2.5" fill="#3fa97c"/><rect x="296" y="60" width="58" height="136" rx="6" fill="#262c3d"/><rect x="166" y="68" width="46" height="26" rx="5" fill="#30374f"/><rect x="172" y="75" width="24" height="4" rx="2" fill="#8a91a5"/><rect x="172" y="83" width="16" height="4" rx="2" fill="#f6a21c"/><rect x="166" y="100" width="46" height="26" rx="5" fill="#30374f"/><rect x="172" y="107" width="24" height="4" rx="2" fill="#8a91a5"/><rect x="172" y="115" width="16" height="4" rx="2" fill="#f6a21c"/><rect x="234" y="68" width="46" height="26" rx="5" fill="#30374f"/><rect x="240" y="75" width="24" height="4" rx="2" fill="#8a91a5"/><rect x="240" y="83" width="16" height="4" rx="2" fill="#f6a21c"/><rect x="302" y="68" width="46" height="26" rx="5" fill="#30374f"/><rect x="308" y="75" width="24" height="4" rx="2" fill="#8a91a5"/><rect x="308" y="83" width="16" height="4" rx="2" fill="#3fa97c"/><rect x="302" y="100" width="46" height="26" rx="5" fill="#30374f"/><rect x="308" y="107" width="24" height="4" rx="2" fill="#8a91a5"/><rect x="308" y="115" width="16" height="4" rx="2" fill="#3fa97c"/><circle cx="346" cy="40" r="9" fill="#3fa97c"/><path d="M342.22,40 L345.28,43.24 L350.14,36.94" fill="none" stroke="#1a1d27" stroke-width="2.34" stroke-linecap="round" stroke-linejoin="round"/>
  <g><rect x="80" y="202" width="11" height="60" rx="5" fill="#3b4260"/><rect x="93" y="202" width="11" height="60" rx="5" fill="#3b4260"/><ellipse cx="84" cy="261" rx="8.5" ry="3.6" fill="#c9ced9"/><ellipse cx="100" cy="261" rx="8.5" ry="3.6" fill="#c9ced9"/><path d="M69,157 Q69,148 78,148 L106,148 Q115,148 115,157 L111,204 L73,204 Z" fill="#4f5a7d"/><path d="M85,148 L92,158 L99,148 Z" fill="#d9dce6"/><path d="M73,156 L68,178 L67,200" fill="none" stroke="#4f5a7d" stroke-width="9.5" stroke-linecap="round" stroke-linejoin="round"/><circle cx="67" cy="200" r="4.8" fill="#f1c9a5"/><path d="M111,156 L124,154 L140,138" fill="none" stroke="#4f5a7d" stroke-width="9.5" stroke-linecap="round" stroke-linejoin="round"/><circle cx="140" cy="138" r="4.8" fill="#f1c9a5"/><rect x="88" y="141" width="8" height="9" rx="2" fill="#f1c9a5"/><circle cx="92" cy="129" r="13" fill="#f1c9a5"/><path d="M78.5,131 C77,114 107,112 105.8,130 C101,122 86,121 78.5,131 Z" fill="#8a5a3c"/></g>
  <g data-anim="float"><rect x="132" y="114" width="52" height="28" rx="5" fill="#30374f"/><rect x="139" y="121" width="26" height="4" rx="2" fill="#f6a21c"/><rect x="139" y="129" width="18" height="4" rx="2" fill="#8a91a5"/></g>
  <g data-anim="float"><circle cx="338" cy="228" r="9.5" fill="#f59e0b"/><circle cx="338" cy="228" r="6.6" fill="#d98a06"/><text x="338" y="231.4" text-anchor="middle" font-family="Arial, sans-serif" font-size="9" font-weight="700" fill="#1a1d27">₹</text></g>
  <g data-anim="sway" data-origin="40 241.2"><ellipse cx="28.799999999999997" cy="223.6" rx="5.2" ry="12" fill="#4fae84" transform="rotate(-35 28.799999999999997 223.6)"/><ellipse cx="49.6" cy="220.39999999999998" rx="5.2" ry="12" fill="#3fa97c" transform="rotate(30 49.6 220.39999999999998)"/><ellipse cx="36.8" cy="212.39999999999998" rx="5.2" ry="12" fill="#4fae84" transform="rotate(-8 36.8 212.39999999999998)"/><ellipse cx="44.8" cy="226.79999999999998" rx="5.2" ry="12" fill="#3fa97c" transform="rotate(55 44.8 226.79999999999998)"/><ellipse cx="27.2" cy="233.2" rx="5.2" ry="12" fill="#4fae84" transform="rotate(-60 27.2 233.2)"/></g><path d="M29.6,241.2 L50.4,241.2 L48,262 L32,262 Z" fill="#b9744a"/>
</svg>
