<svg xmlns="http://www.w3.org/2000/svg" viewBox="0 0 400 300">
  <path d="M378.3,140.0 C378.3,164.4 338.9,194.0 310.0,213.2 C281.1,232.4 243.5,252.6 205.0,255.0 C166.5,257.4 104.3,247.0 79.0,227.8 C53.7,208.7 51.3,167.9 53.2,140.0 C55.1,112.1 65.4,80.6 90.7,60.3 C116.0,40.0 168.4,17.0 205.0,18.1 C241.6,19.2 281.1,46.5 310.0,66.8 C338.9,87.1 378.3,115.6 378.3,140.0Z" fill="#1b1f2c"/>
  <rect x="40" y="262" width="320" height="3" rx="1.5" fill="#2c3248"/>
  <path d="M258,66 Q304,66 318,108" fill="none" stroke="#6b7290" stroke-width="2" stroke-linecap="round" stroke-linejoin="round" stroke-dasharray="4 5"/><path d="M318,152 Q318,196 258,196" fill="none" stroke="#6b7290" stroke-width="2" stroke-linecap="round" stroke-linejoin="round" stroke-dasharray="4 5"/>
  <rect x="176" y="46" width="82" height="40" rx="8" fill="#262c3d"/><rect x="184" y="54" width="24" height="24" rx="6" fill="#f59e0b"/><path d="M200,53 L190,67 L196,67 L192,79 L204,63 L198,63 L202,53 Z" fill="#1a1d27"/><rect x="212" y="58" width="34" height="4" rx="2" fill="#8a91a5"/><rect x="212" y="68" width="23.799999999999997" height="3.5" rx="1.75" fill="#6b7290"/>
  <rect x="276" y="110" width="84" height="40" rx="8" fill="#262c3d"/><circle cx="296" cy="130" r="11" fill="#3fa97c"/><path d="M291,130 l4,4 l7,-7" fill="none" stroke="#1a1d27" stroke-width="2.5" stroke-linecap="round" stroke-linejoin="round"/><rect x="312" y="122" width="36" height="4" rx="2" fill="#8a91a5"/><rect x="312" y="132" width="25.2" height="3.5" rx="1.75" fill="#6b7290"/>
  <rect x="176" y="176" width="82" height="40" rx="8" fill="#262c3d"/><rect x="184" y="184" width="24" height="24" rx="6" fill="#5b6385"/><rect x="189" y="193" width="14" height="3.5" rx="1.75" fill="#d9dce6"/><rect x="212" y="188" width="34" height="4" rx="2" fill="#8a91a5"/><rect x="212" y="198" width="23.799999999999997" height="3.5" rx="1.75" fill="#6b7290"/>
  <g data-anim="float"><rect x="337.36" y="38.4" width="5.28" height="6" rx="2" fill="#5b6385" transform="rotate(0 340 54)"/><rect x="337.36" y="38.4" width="5.28" height="6" rx="2" fill="#5b6385" transform="rotate(45 340 54)"/><rect x="337.36" y="38.4" width="5.28" height="6" rx="2" fill="#5b6385" transform="rotate(90 340 54)"/><rect x="337.36" y="38.4" width="5.28" height="6" rx="2" fill="#5b6385" transform="rotate(135 340 54)"/><rect x="337.36" y="38.4" width="5.28" height="6" rx="2" fill="#5b6385" transform="rotate(180 340 54)"/><rect x="337.36" y="38.4" width="5.28" height="6" rx="2" fill="#5b6385" transform="rotate(225 340 54)"/><rect x="337.36" y="38.4" width="5.28" height="6" rx="2" fill="#5b6385" transform="rotate(270 340 54)"/><rect x="337.36" y="38.4" width="5.28" height="6" rx="2" fill="#5b6385" transform="rotate(315 340 54)"/><circle cx="340" cy="54" r="12" fill="#5b6385"/><circle cx="340" cy="54" r="5.04" fill="#1b1f2c"/></g>
  <g data-anim="float"><path d="M160,123 Q161,127 165,128 Q161,129 160,133 Q159,129 155,128 Q159,127 160,123 Z" fill="#f59e0b"/></g>
  <g><rect x="84" y="202" width="11" height="60" rx="5" fill="#3b4260"/><rect x="97" y="202" width="11" height="60" rx="5" fill="#3b4260"/><ellipse cx="88" cy="261" rx="8.5" ry="3.6" fill="#c9ced9"/><ellipse cx="104" cy="261" rx="8.5" ry="3.6" fill="#c9ced9"/><path d="M73,157 Q73,148 82,148 L110,148 Q119,148 119,157 L115,204 L77,204 Z" fill="#4f5a7d"/><path d="M89,148 L96,158 L103,148 Z" fill="#d9dce6"/><path d="M77,156 L72,178 L71,200" fill="none" stroke="#4f5a7d" stroke-width="9.5" stroke-linecap="round" stroke-linejoin="round"/><circle cx="71" cy="200" r="4.8" fill="#a86b45"/><path d="M115,156 L132,156 L152,150" fill="none" stroke="#4f5a7d" stroke-width="9.5" stroke-linecap="round" stroke-linejoin="round"/><circle cx="152" cy="150" r="4.8" fill="#a86b45"/><rect x="92" y="141" width="8" height="9" rx="2" fill="#a86b45"/><circle cx="96" cy="129" r="13" fill="#a86b45"/><circle cx="85" cy="123" r="6.2" fill="#4d4a5c"/><circle cx="91" cy="117" r="6.2" fill="#4d4a5c"/><circle cx="99" cy="116" r="6.2" fill="#4d4a5c"/><circle cx="106" cy="121" r="6.2" fill="#4d4a5c"/><circle cx="109" cy="128" r="6.2" fill="#4d4a5c"/><circle cx="83" cy="130" r="6.2" fill="#4d4a5c"/></g>
</svg>
