<svg xmlns="http://www.w3.org/2000/svg" viewBox="0 0 400 300">
  <path d="M365.0,140.0 C364.6,165.2 334.8,194.7 307.3,214.8 C279.8,234.9 236.4,260.3 200.0,260.8 C163.6,261.2 118.9,237.4 89.2,217.3 C59.5,197.1 20.8,165.1 21.8,140.0 C22.8,114.9 65.3,86.4 95.0,66.8 C124.7,47.3 164.2,23.2 200.0,22.7 C235.8,22.2 282.2,44.0 309.7,63.6 C337.2,83.1 365.4,114.8 365.0,140.0Z" fill="#1b1f2c"/>
  <rect x="40" y="262" width="320" height="3" rx="1.5" fill="#2c3248"/>
  <g data-anim="sway" data-origin="62 232.1"><ellipse cx="45.900000000000006" cy="206.8" rx="7.475" ry="17.25" fill="#4fae84" transform="rotate(-35 45.900000000000006 206.8)"/><ellipse cx="75.8" cy="202.2" rx="7.475" ry="17.25" fill="#3fa97c" transform="rotate(30 75.8 202.2)"/><ellipse cx="57.4" cy="190.7" rx="7.475" ry="17.25" fill="#4fae84" transform="rotate(-8 57.4 190.7)"/><ellipse cx="68.9" cy="211.4" rx="7.475" ry="17.25" fill="#3fa97c" transform="rotate(55 68.9 211.4)"/><ellipse cx="43.6" cy="220.6" rx="7.475" ry="17.25" fill="#4fae84" transform="rotate(-60 43.6 220.6)"/></g><path d="M47.05,232.1 L76.95,232.1 L73.5,262 L50.5,262 Z" fill="#b9744a"/>
  <rect x="183" y="158" width="44" height="62" rx="10" fill="#2b3146"/>
  <g><path d="M190,137 Q189,122 205,122 Q221,122 220,137 L222,178 Q205,184 188,178 Z" fill="#8a5a3c"/><path d="M182,165 Q182,156 191,156 L219,156 Q228,156 228,165 L224,212 L186,212 Z" fill="#5b6385"/><path d="M198,156 L205,166 L212,156 Z" fill="#d9dce6"/><path d="M186,164 L180,188 L192,202" fill="none" stroke="#5b6385" stroke-width="9.5" stroke-linecap="round" stroke-linejoin="round"/><circle cx="192" cy="202" r="4.8" fill="#d6a074"/><path d="M224,164 L230,188 L218,202" fill="none" stroke="#5b6385" stroke-width="9.5" stroke-linecap="round" stroke-linejoin="round"/><circle cx="218" cy="202" r="4.8" fill="#d6a074"/><rect x="201" y="149" width="8" height="9" rx="2" fill="#d6a074"/><circle cx="205" cy="137" r="13" fill="#d6a074"/><path d="M191.5,139 C190,122 220,120 218.8,138 C214,130 199,129 191.5,139 Z" fill="#8a5a3c"/></g>
  <rect x="115" y="210" width="6" height="52" rx="2" fill="#2e344a"/><rect x="299" y="210" width="6" height="52" rx="2" fill="#2e344a"/><rect x="105" y="204" width="210" height="9" rx="3" fill="#3a405a"/>
  <rect x="168" y="158.12" width="74" height="45.88" rx="5" fill="#4b536f"/><circle cx="205" cy="181.06" r="4" fill="#f6a21c"/><rect x="162" y="201" width="86" height="5" rx="2" fill="#3a405a"/>
  <rect x="282" y="188" width="14" height="16" rx="3" fill="#d9dce6"/><path d="M296,193 Q303,196 296,200" fill="none" stroke="#d9dce6" stroke-width="2.5" stroke-linecap="round" stroke-linejoin="round"/>
  <g data-anim="float"><rect x="258" y="62" width="82" height="34" rx="8" fill="#f59e0b"/><path d="M268,95 L276,95 L266,104 Z" fill="#f59e0b"/><rect x="267" y="71" width="64" height="3.5" rx="1.75" fill="#7a4a06"/><rect x="267" y="79" width="38.4" height="3.5" rx="1.75" fill="#7a4a06"/></g>
  <g data-anim="float"><rect x="78" y="92" width="70" height="30" rx="8" fill="#2f3650"/><path d="M130,121 L138,121 L142,130 Z" fill="#2f3650"/><rect x="87" y="101" width="52" height="3.5" rx="1.75" fill="#8a91a5"/><rect x="87" y="109" width="31.2" height="3.5" rx="1.75" fill="#8a91a5"/></g>
  <g data-anim="float"><path d="M318,114 Q319.2,118.8 324,120 Q319.2,121.2 318,126 Q316.8,121.2 312,120 Q316.8,118.8 318,114 Z" fill="#f59e0b"/><path d="M96,59.5 Q96.9,63.1 100.5,64 Q96.9,64.9 96,68.5 Q95.1,64.9 91.5,64 Q95.1,63.1 96,59.5 Z" fill="#f59e0b"/></g>
</svg>
